<?xml version="1.0" standalone="no"?>
<!DOCTYPE svg PUBLIC "-//W3C//DTD SVG 20010904//EN"
 "http://www.w3.org/TR/2001/REC-SVG-20010904/DTD/svg10.dtd">
<svg version="1.0" xmlns="http://www.w3.org/2000/svg"
 width="580.000000pt" height="580.000000pt" viewBox="0 0 580.000000 580.000000"
 preserveAspectRatio="xMidYMid meet">
<metadata>
Created by potrace 1.14, written by Peter Selinger 2001-2017
</metadata>
<g transform="translate(0.000000,580.000000) scale(0.100000,-0.100000)"
fill="#000000" stroke="none">
<path d="M2795 4957 c-28 -12 -71 -34 -95 -48 -25 -15 -70 -40 -100 -57 -30
-16 -98 -54 -150 -84 -52 -30 -102 -58 -110 -62 -8 -4 -24 -12 -35 -19 -23
-14 -115 -67 -165 -95 -19 -10 -120 -68 -225 -127 -104 -59 -316 -178 -469
-264 -159 -89 -298 -174 -323 -197 -28 -26 -53 -63 -68 -100 l-25 -59 3 -955
2 -955 24 -48 c36 -73 81 -109 290 -227 106 -61 195 -110 197 -110 2 0 33 -18
69 -40 36 -22 67 -40 70 -40 2 0 25 -13 52 -29 37 -23 462 -263 713 -404 19
-11 100 -56 180 -102 169 -95 203 -108 287 -108 50 1 74 7 135 38 40 20 78 41
83 45 6 4 30 18 55 32 40 22 533 301 617 349 18 10 63 35 100 55 37 21 85 48
105 61 21 13 39 23 41 23 3 0 71 38 152 85 82 47 150 85 151 85 2 0 27 14 56
31 29 18 71 42 93 54 120 66 150 85 185 119 21 20 49 58 62 84 l23 47 0 965 0
965 -26 56 c-17 35 -43 69 -70 91 -36 29 -189 119 -472 277 -21 12 -71 40
-110 63 -40 22 -94 53 -122 68 -56 31 -242 136 -265 150 -67 41 -213 120 -221
120 -5 0 -9 5 -9 10 0 6 -5 10 -11 10 -6 0 -37 15 -68 34 -31 19 -81 47 -111
64 -30 16 -84 47 -120 67 -147 86 -177 98 -253 101 -57 2 -83 -2 -122 -19z"/>
</g>
</svg>
