<svg width="600" height="600" viewBox="0 0 600 600" fill="none" xmlns="http://www.w3.org/2000/svg">
<path fill-rule="evenodd" clip-rule="evenodd" d="M318.75 5.02502C313.049 1.73371 306.583 0.000976563 300 0.000976562C293.417 0.000976563 286.951 1.73371 281.25 5.02502L56.25 139.163C50.5494 142.454 45.8156 147.188 42.5243 152.888C39.233 158.589 37.5002 165.055 37.5 171.638V428.363C37.5002 434.945 39.233 441.411 42.5243 447.112C45.8156 452.813 50.5494 457.546 56.25 460.837L281.25 594.975C286.951 598.266 293.417 599.999 300 599.999C306.583 599.999 313.049 598.266 318.75 594.975L543.75 460.837C549.451 457.546 554.184 452.813 557.476 447.112C560.767 441.411 562.5 434.945 562.5 428.363V171.638C562.5 165.055 560.767 158.589 557.476 152.888C554.184 147.188 549.451 142.454 543.75 139.163L318.75 5.02502Z" fill="#31CA5A"/>
<path d="M298.8 217.4C300.267 219 301.4 220.933 302.2 223.2C303 225.467 303.4 227.733 303.4 230C298.867 230 295.467 230.8 293.2 232.4C291.067 234 290 236.6 290 240.2V334.2C290 337.933 291 340.533 293 342C295.133 343.467 298.6 344.2 303.4 344.2C303.4 346.6 303 348.933 302.2 351.2C301.4 353.467 300.267 355.4 298.8 357H249.2C247.867 355.4 246.8 353.467 246 351.2C245.2 348.933 244.8 346.6 244.8 344.2C249.467 344.2 252.933 343.467 255.2 342C257.467 340.4 258.6 337.8 258.6 334.2V251.4L224.6 337.2C222.867 341.333 220.467 344.2 217.4 345.8C214.333 347.267 210.333 348 205.4 348L165.8 251.4V334.2C165.8 337.8 167.067 340.4 169.6 342C172.267 343.467 176.267 344.2 181.6 344.2C181.6 346.6 181.2 348.933 180.4 351.2C179.6 353.467 178.533 355.4 177.2 357H135.6C134.267 355.4 133.2 353.467 132.4 351.2C131.6 348.933 131.2 346.6 131.2 344.2C136.133 344.2 139.733 343.467 142 342C144.267 340.4 145.4 337.8 145.4 334.2V240.2C145.4 236.6 144.2 234 141.8 232.4C139.4 230.8 135.867 230 131.2 230C131.2 227.733 131.6 225.467 132.4 223.2C133.2 220.933 134.333 219 135.8 217.4H167.2C173.467 217.4 178.467 218.333 182.2 220.2C185.933 221.933 188.933 225.467 191.2 230.8L212.4 283L220.4 307.8L228 283L253.2 217.4H298.8ZM358.417 268.8C358.417 274.667 356.551 279.467 352.817 283.2C349.084 286.8 344.217 288.6 338.217 288.6C332.084 288.6 327.151 286.8 323.417 283.2C319.684 279.467 317.817 274.667 317.817 268.8C317.817 262.8 319.684 258 323.417 254.4C327.151 250.8 332.084 249 338.217 249C344.217 249 349.084 250.8 352.817 254.4C356.551 258 358.417 262.8 358.417 268.8ZM358.417 338.6C358.417 344.467 356.551 349.267 352.817 353C349.084 356.6 344.217 358.4 338.217 358.4C332.084 358.4 327.151 356.6 323.417 353C319.684 349.267 317.817 344.467 317.817 338.6C317.817 332.6 319.684 327.8 323.417 324.2C327.151 320.6 332.084 318.8 338.217 318.8C344.217 318.8 349.084 320.6 352.817 324.2C356.551 327.8 358.417 332.6 358.417 338.6ZM475.802 300.8L401.202 357.2C398.535 356.133 395.868 353.733 393.202 350C390.668 346.133 388.802 342.533 387.602 339.2L445.402 295.4L387.602 253.4C388.802 249.933 390.668 246.333 393.202 242.6C395.868 238.867 398.535 236.467 401.202 235.4L475.802 290.2V300.8Z" fill="white"/>
</svg>
